<?xml version="1.0" encoding="UTF-8"?>
<svg version="1.1" xmlns="http://www.w3.org/2000/svg" width="500" height="500">
<path d="M0 0 C165 0 330 0 500 0 C500 165 500 330 500 500 C335 500 170 500 0 500 C0 335 0 170 0 0 Z " fill="#2B2A29" transform="translate(0,0)"/>
<path d="M0 0 C1.1092836 -0.00701431 2.2185672 -0.01402863 3.36146545 -0.02125549 C6.93112266 -0.038701 10.5006142 -0.04510944 14.0703125 -0.046875 C15.28639191 -0.04754974 16.50247131 -0.04822449 17.75540161 -0.04891968 C35.42065147 -0.03331266 52.74320709 0.21836445 70.1953125 3.203125 C71.68417969 3.44458252 71.68417969 3.44458252 73.203125 3.69091797 C103.96092201 8.86192357 131.04861518 23.36581089 149.6328125 48.765625 C156.61715226 59.11514665 162.27235314 69.72883486 166.7578125 81.390625 C167.27782837 82.7360437 167.27782837 82.7360437 167.80834961 84.10864258 C169.39327205 88.3893537 170.26721853 91.61339515 170.1953125 96.203125 C151.53031342 99.54582375 132.86357572 102.87870462 114.1953125 106.203125 C113.0916333 106.39980774 111.9879541 106.59649048 110.85083008 106.7991333 C105.07181968 107.8287463 99.29223905 108.85500396 93.51147461 109.87472534 C91.80699884 110.17587885 90.1027321 110.47821796 88.39868164 110.7817688 C86.05541105 111.19891386 83.71142616 111.61177286 81.3671875 112.0234375 C80.0687793 112.25305176 78.77037109 112.48266602 77.43261719 112.71923828 C74.1953125 113.203125 74.1953125 113.203125 70.1953125 113.203125 C69.710625 112.15253906 69.2259375 111.10195312 68.7265625 110.01953125 C64.82115272 101.75793607 61.01935648 94.47532321 54.1953125 88.203125 C53.59332031 87.64367187 52.99132812 87.08421875 52.37109375 86.5078125 C40.75139998 76.81255438 25.2671404 74.84714807 10.6953125 74.953125 C9.10009766 74.94152344 9.10009766 74.94152344 7.47265625 74.9296875 C-11.06148482 74.97517005 -27.8047299 81.80059423 -41.35546875 94.54296875 C-60.38864056 115.2153611 -64.0315202 144.71338383 -63.9921875 171.640625 C-63.99158325 172.40045685 -63.990979 173.1602887 -63.99035645 173.94314575 C-63.96615585 185.13666114 -63.73892028 196.15487146 -61.8046875 207.203125 C-61.67578125 207.97076172 -61.546875 208.73839844 -61.4140625 209.52929688 C-58.32715995 227.37902506 -53.12000462 243.29130234 -39.8046875 256.203125 C-39.8046875 256.863125 -39.8046875 257.523125 -39.8046875 258.203125 C-39.27488281 258.44417969 -38.74507812 258.68523437 -38.19921875 258.93359375 C-35.74705599 260.23368004 -33.517522 261.75022224 -31.23632812 263.32617188 C-11.73371652 276.62638516 13.82768313 278.37785428 36.71435547 274.17773438 C46.4346511 271.98711825 55.7091322 268.29842701 64.76904297 264.20947266 C67.79712001 262.95351234 70.8757119 262.0828002 74.05493164 261.29370117 C77.43138882 259.84443105 77.43138882 259.84443105 83.1953125 254.203125 C83.5253125 243.643125 83.8553125 233.083125 84.1953125 222.203125 C61.0953125 222.203125 37.9953125 222.203125 14.1953125 222.203125 C14.1953125 199.103125 14.1953125 176.003125 14.1953125 152.203125 C67.6553125 152.203125 121.1153125 152.203125 176.1953125 152.203125 C176.3809375 175.65375 176.5665625 199.104375 176.7578125 223.265625 C176.83974854 230.66750244 176.92168457 238.06937988 177.00610352 245.69555664 C177.04675293 254.74108887 177.04675293 254.74108887 177.05430603 258.97703552 C177.06268523 261.93318081 177.09637862 264.88786865 177.14549255 267.84361267 C177.20737337 271.61786144 177.22571006 275.39000095 177.21296299 279.16470993 C177.21688084 281.19835303 177.26508672 283.23176431 177.31517124 285.26479435 C177.22595016 293.97531324 177.22595016 293.97531324 174.22955799 297.54495335 C171.96023018 299.33736336 169.71983769 300.80043338 167.1953125 302.203125 C166.19508057 302.86739502 165.19484863 303.53166504 164.16430664 304.21606445 C163.27864014 304.74417725 162.39297363 305.27229004 161.48046875 305.81640625 C160.4742749 306.4194458 159.46808105 307.02248535 158.43139648 307.64379883 C157.38411377 308.26150146 156.33683105 308.8792041 155.2578125 309.515625 C154.1531665 310.17006592 153.04852051 310.82450684 151.91040039 311.4987793 C149.69292165 312.80782732 147.47315925 314.11301569 145.25097656 315.4140625 C143.38774803 316.50496524 141.52704157 317.60020977 139.67089844 318.703125 C120.7477752 329.93133439 100.54293782 337.94276394 79.1953125 343.203125 C78.05545898 343.49243896 78.05545898 343.49243896 76.89257812 343.78759766 C23.14135532 357.20201292 -46.30506949 356.20992509 -94.95605469 327.35693359 C-104.66840474 321.29505214 -113.53022016 314.0966316 -121.8046875 306.203125 C-122.39121094 305.67976563 -122.97773437 305.15640625 -123.58203125 304.6171875 C-139.58067694 289.78550184 -150.25296053 268.31762012 -157.8046875 248.203125 C-158.05057617 247.55085937 -158.29646484 246.89859375 -158.54980469 246.2265625 C-165.4011142 227.53939591 -168.87664374 206.76007077 -169.04296875 186.88671875 C-169.0527626 185.92068222 -169.06255646 184.95464569 -169.07264709 183.95933533 C-169.39448269 144.03509954 -169.39448269 144.03509954 -164.8046875 126.203125 C-164.57974609 125.29578613 -164.35480469 124.38844727 -164.12304688 123.45361328 C-154.01977665 83.42323199 -132.33775003 47.23971268 -96.52734375 25.39453125 C-72.92572341 11.37732526 -48.99355848 4.35302636 -21.8046875 1.203125 C-20.75325058 1.07763779 -20.75325058 1.07763779 -19.68057251 0.94961548 C-13.11024576 0.2201609 -6.60734192 0.02790768 0 0 Z " fill="#FDFDFD" transform="translate(246.8046875,74.796875)"/>
</svg>
